<?xml version="1.0" standalone="no"?>
<!DOCTYPE svg PUBLIC "-//W3C//DTD SVG 20010904//EN"
 "http://www.w3.org/TR/2001/REC-SVG-20010904/DTD/svg10.dtd">
<svg version="1.0" xmlns="http://www.w3.org/2000/svg"
 width="480.000000pt" height="480.000000pt" viewBox="0 0 480.000000 480.000000"
 preserveAspectRatio="xMidYMid meet">
<metadata>
Created by potrace 1.14, written by Peter Selinger 2001-2017
</metadata>
<g transform="translate(0.000000,480.000000) scale(0.100000,-0.100000)"
fill="#000000" stroke="none">
<path d="M2198 4505 c-92 -15 -225 -51 -245 -68 -7 -5 -13 -7 -13 -3 0 4 -14
-1 -31 -9 -26 -14 -72 -16 -297 -15 l-267 0 101 -101 101 -101 -83 -85 c-118
-121 -226 -285 -276 -417 -44 -117 -57 -162 -85 -306 -4 -19 -9 -729 -10
-1578 l-3 -1543 557 4 c307 2 572 7 588 10 17 4 74 16 128 28 585 122 1070
559 1261 1135 14 44 28 89 31 100 2 10 11 53 19 94 8 41 18 91 22 110 4 19 9
375 11 790 3 688 0 807 -22 910 -3 14 -7 37 -10 51 -10 57 -59 189 -101 276
-57 116 -148 245 -241 339 -40 41 -73 77 -73 81 0 4 44 52 98 106 l97 97 -265
0 c-243 -1 -269 0 -312 19 -47 20 -170 56 -223 66 -16 2 -41 7 -55 11 -55 12
-317 12 -402 -1z"/>
</g>
</svg>
