<svg xmlns="http://www.w3.org/2000/svg" viewBox="0 0 72.94 110.28"><defs><style>.cls-1{fill:#1c9585;}.cls-2{fill:#19877d;}.cls-3{fill:#177d74;}.cls-4{fill:#fff;}.cls-5{fill:#ffaa50;}.cls-6{fill:#373c41;}.cls-7{fill:#ff640a;}.cls-8{fill:#2d5d5e;}</style></defs><title>Asset 3</title><g id="Layer_2" data-name="Layer 2"><g id="OBJECTS"><path class="cls-1" d="M36.47,5.63A36.47,36.47,0,0,1,72.94,42.1c0,20.14-16.32,67.51-36.47,67.51S0,62.24,0,42.1A36.46,36.46,0,0,1,36.47,5.63Z"/><path class="cls-2" d="M25.36,75c0-19.5-16.93-35.3-25.36-35.3v70.61C8.43,110.28,25.36,94.47,25.36,75Z"/><path class="cls-3" d="M0,100.24v10c8.43,0,25.36-15.81,25.36-35.31A34.69,34.69,0,0,0,25,70C22.46,87.07,7.69,100.24,0,100.24Z"/><path class="cls-2" d="M47.58,75c0-19.5,16.93-35.3,25.36-35.3v70.61C64.51,110.28,47.58,94.47,47.58,75Z"/><path class="cls-3" d="M72.94,100.24v10c-8.43,0-25.36-15.81-25.36-35.31A34.69,34.69,0,0,1,48,70C50.49,87.07,65.25,100.24,72.94,100.24Z"/><circle class="cls-4" cx="22.09" cy="38.17" r="17.04" transform="translate(-19.13 53.82) rotate(-80.73)"/><circle class="cls-5" cx="22.09" cy="38.17" r="9.41"/><circle class="cls-6" cx="22.09" cy="38.17" r="4.87"/><circle class="cls-4" cx="15.66" cy="33.3" r="4.87"/><circle class="cls-4" cx="50.86" cy="38.17" r="17.04" transform="translate(5.04 82.25) rotate(-80.78)"/><circle class="cls-5" cx="50.49" cy="38.17" r="9.41"/><circle class="cls-6" cx="50.86" cy="38.17" r="4.87"/><circle class="cls-4" cx="44.01" cy="33.62" r="4.87"/><polygon class="cls-5" points="36.47 64.93 30.23 53.21 36.47 46.97 42.72 53.21 36.47 64.93"/><polygon class="cls-7" points="36.47 64.93 36.47 46.97 42.72 53.21 36.47 64.93"/><path class="cls-8" d="M69.68,0a6.63,6.63,0,0,0-5.52,3A33.15,33.15,0,0,1,36.47,17.85,33.18,33.18,0,0,1,8.78,3a6.59,6.59,0,0,0-5.5-3h0V.16a33.2,33.2,0,0,0,33.2,33.21A33.21,33.21,0,0,0,69.68.16Z"/><path class="cls-3" d="M36.47,17.85A33.13,33.13,0,0,1,11.52,6.54a25.76,25.76,0,0,0,25,19.37,25.77,25.77,0,0,0,25-19.37A33.14,33.14,0,0,1,36.47,17.85Z"/></g></g></svg>