<svg xmlns="http://www.w3.org/2000/svg" viewBox="0 0 95.16 108.13"><defs><style>.cls-1{fill:#177d74;}.cls-2{fill:#1c9585;}.cls-3{fill:#fff;}.cls-4{fill:#0aaded;}.cls-5{fill:#692823;}.cls-6{fill:#ff640a;}.cls-7{fill:#ffaa50;}.cls-8{fill:#2d5d5e;}</style></defs><title>Asset 1</title><g id="Layer_2" data-name="Layer 2"><g id="OBJECTS"><path class="cls-1" d="M30.63,63.81c4,17.76-4.83,44.32-4.83,44.32S5.65,88,1.69,70.28,1,36.67,9,34.89,26.66,46.05,30.63,63.81Z"/><path class="cls-1" d="M64.53,63.81c-4,17.76,4.83,44.32,4.83,44.32S89.5,88,93.47,70.28s.7-33.61-7.29-35.39S68.49,46.05,64.53,63.81Z"/><path class="cls-2" d="M87.26,49.08c0,14.56-11.63,33.18-22.41,47.29a22.53,22.53,0,0,1-35.81,0C18.27,82.27,6.62,63.65,6.62,49.08,6.62,22,24.68,0,46.94,0S87.26,22,87.26,49.08Z"/><circle class="cls-1" cx="34.07" cy="30.44" r="22.58" transform="translate(-8.97 15.11) rotate(-22.18)"/><polygon class="cls-1" points="31.66 8.32 9.62 3.2 11.49 30.89 31.66 8.32"/><polygon class="cls-1" points="62.28 8.32 84.31 3.2 82.44 30.89 62.28 8.32"/><circle class="cls-1" cx="60.2" cy="30.44" r="22.58" transform="translate(-3.89 51.48) rotate(-45)"/><circle class="cls-3" cx="34.07" cy="30.44" r="17.04" transform="translate(-1.45 59.16) rotate(-80.73)"/><circle class="cls-4" cx="34.07" cy="30.44" r="8.39" transform="translate(-8 12.62) rotate(-18.83)"/><circle class="cls-5" cx="34.07" cy="30.44" r="6.2"/><path class="cls-3" d="M32,25.36a4.16,4.16,0,1,1-4.15-4.15A4.15,4.15,0,0,1,32,25.36Z"/><circle class="cls-3" cx="60.2" cy="30.44" r="17.04" transform="translate(-3.89 51.48) rotate(-45)"/><polygon class="cls-6" points="46.94 57.48 40.7 45.76 46.94 39.52 53.19 45.76 46.94 57.48"/><polygon class="cls-7" points="46.94 57.48 40.7 45.76 46.94 39.52 46.94 57.48"/><path class="cls-8" d="M23,68.44l-3.09-5.81a3.5,3.5,0,1,1,6.18,0Z"/><path class="cls-8" d="M39,68.44l-3.1-5.81a3.5,3.5,0,1,1,6.19,0Z"/><path class="cls-8" d="M54.93,68.44l-3.09-5.81a3.5,3.5,0,1,1,6.19,0Z"/><path class="cls-8" d="M70.91,68.44l-3.09-5.81a3.5,3.5,0,1,1,6.18,0Z"/><path class="cls-8" d="M31,81.34l-3.1-5.81a3.5,3.5,0,1,1,6.19,0Z"/><path class="cls-8" d="M46.94,81.34l-3.09-5.81a3.5,3.5,0,1,1,6.19,0Z"/><path class="cls-8" d="M62.92,81.34l-3.09-5.81a3.5,3.5,0,1,1,6.18,0Z"/><path class="cls-8" d="M39,95l-3.1-5.81a3.51,3.51,0,1,1,6.19,0Z"/><path class="cls-8" d="M54.93,95l-3.09-5.81a3.51,3.51,0,1,1,6.19,0Z"/><circle class="cls-4" cx="60.4" cy="30.44" r="8.39" transform="translate(16.86 82.19) rotate(-76.67)"/><circle class="cls-5" cx="60.4" cy="30.44" r="6.2"/><path class="cls-3" d="M58.36,25.36a4.16,4.16,0,1,1-4.16-4.15A4.16,4.16,0,0,1,58.36,25.36Z"/></g></g></svg>