<svg xmlns="http://www.w3.org/2000/svg" viewBox="0 0 77.64 125.4"><defs><style>.cls-1{fill:#1c9585;}.cls-2{fill:#177d74;}.cls-3{fill:#2d5d5e;}.cls-4{fill:#fff;}.cls-5{fill:#9aced6;}.cls-6{fill:#fa690f;}.cls-7{fill:#ffa50a;}</style></defs><title>Asset 2</title><g id="Layer_2" data-name="Layer 2"><g id="OBJECTS"><path class="cls-1" d="M77.64,74.78A50.62,50.62,0,0,1,27,125.4H0V38.82a38.82,38.82,0,0,1,77.64,0Z"/><path class="cls-2" d="M35,124.77a50.64,50.64,0,0,0,42.63-50V62.7H55.24A20.23,20.23,0,0,0,35,82.93Z"/><polygon class="cls-3" points="60.82 77.5 55.12 69.97 66.52 69.97 60.82 77.5"/><polygon class="cls-3" points="51.31 88.46 45.6 80.93 57.01 80.93 51.31 88.46"/><polygon class="cls-3" points="70.33 88.46 64.63 80.93 76.03 80.93 70.33 88.46"/><polygon class="cls-3" points="51.31 111.06 45.6 103.53 57.01 103.53 51.31 111.06"/><polygon class="cls-3" points="60.82 99.76 55.12 92.23 66.52 92.23 60.82 99.76"/><circle class="cls-4" cx="24.81" cy="31.65" r="17.04"/><circle class="cls-5" cx="24.81" cy="31.65" r="9.41"/><circle class="cls-3" cx="24.81" cy="31.65" r="4.87"/><circle class="cls-4" cx="19.08" cy="25.92" r="4.87"/><circle class="cls-4" cx="53.57" cy="31.65" r="17.04"/><circle class="cls-5" cx="53.57" cy="31.65" r="9.41"/><circle class="cls-3" cx="53.57" cy="31.65" r="4.87"/><circle class="cls-4" cx="47.82" cy="26.42" r="4.87"/><polygon class="cls-3" points="38.82 19.64 22.43 3.25 7.57 3.25 38.82 34.5 70.07 3.25 55.21 3.25 38.82 19.64"/><path class="cls-2" d="M25.36,83.59C25.36,64.09,8.43,48.28,0,48.28V118.9C8.43,118.9,25.36,103.09,25.36,83.59Z"/><polygon class="cls-6" points="39.36 58.4 33.12 46.68 39.36 40.44 45.6 46.68 39.36 58.4"/><polygon class="cls-7" points="39.36 58.4 39.36 40.44 33.12 46.68 39.36 58.4"/></g></g></svg>